<mxfile host="www.draw.io" modified="2020-01-13T19:53:59.014Z" agent="Mozilla/5.0 (Windows NT 10.0; Win64; x64) AppleWebKit/537.36 (KHTML, like Gecko) Chrome/79.0.3945.88 Safari/537.36" etag="EEbQZ3h8IKHe7uxHoGjo" version="12.5.1" type="github">
  <diagram id="Tbc5tQlxnIHPWrfjvlOS" name="Page-1">
    <mxGraphModel dx="1102" dy="533" grid="1" gridSize="10" guides="1" tooltips="1" connect="1" arrows="1" fold="1" page="1" pageScale="1" pageWidth="827" pageHeight="1169" math="0" shadow="0">
      <root>
        <mxCell id="0"/>
        <mxCell id="1" parent="0"/>
        <mxCell id="aofU6fkUi0YRMS0AcK9Y-1" value="" style="whiteSpace=wrap;html=1;fillColor=#CCCCCC;" parent="1" vertex="1">
          <mxGeometry x="180" y="40" width="425" height="510" as="geometry"/>
        </mxCell>
        <mxCell id="aofU6fkUi0YRMS0AcK9Y-19" value="" style="verticalLabelPosition=bottom;verticalAlign=top;html=1;shape=mxgraph.basic.rect;fillColor2=none;strokeWidth=1;size=20;indent=5;fontSize=10;align=left;strokeColor=#CCCCCC;" parent="1" vertex="1">
          <mxGeometry x="238.75" y="270" width="307.5" height="210" as="geometry"/>
        </mxCell>
        <mxCell id="aofU6fkUi0YRMS0AcK9Y-2" value="" style="rounded=0;whiteSpace=wrap;html=1;fillColor=#808080;strokeColor=#808080;fontColor=#333333;" parent="1" vertex="1">
          <mxGeometry x="180" y="40" width="425" height="60" as="geometry"/>
        </mxCell>
        <mxCell id="aofU6fkUi0YRMS0AcK9Y-4" value="Plant It Earth" style="text;html=1;align=center;verticalAlign=middle;resizable=0;points=[];autosize=1;fontSize=20;" parent="1" vertex="1">
          <mxGeometry x="210" y="55" width="130" height="30" as="geometry"/>
        </mxCell>
        <mxCell id="aofU6fkUi0YRMS0AcK9Y-5" value="" style="rounded=1;whiteSpace=wrap;html=1;fillColor=#CCCCCC;fontSize=20;align=left;" parent="1" vertex="1">
          <mxGeometry x="322.5" y="139" width="240" height="20" as="geometry"/>
        </mxCell>
        <mxCell id="aofU6fkUi0YRMS0AcK9Y-6" value="" style="shape=image;html=1;verticalAlign=top;verticalLabelPosition=bottom;labelBackgroundColor=#ffffff;imageAspect=0;aspect=fixed;image=https://cdn0.iconfinder.com/data/icons/heroicons-ui/24/icon-search-128.png;fillColor=#CCCCCC;fontSize=20;" parent="1" vertex="1">
          <mxGeometry x="540" y="140" width="18" height="18" as="geometry"/>
        </mxCell>
        <mxCell id="aofU6fkUi0YRMS0AcK9Y-8" value="&lt;span style=&quot;font-family: &amp;#34;open sans&amp;#34; , &amp;#34;arial&amp;#34; , sans-serif ; text-align: justify ; white-space: normal ; font-size: 11px ; background-color: rgb(204 , 204 , 204)&quot;&gt;Lorem ipsum dolor sit amet, consectetur adipiscing elit. Ut varius, turpis a congue vulputate, justo erat rhoncus tellus, quis dignissim enim urna quis ex. Nam accumsan ante dui, sed mattis orci placerat nec.&lt;/span&gt;" style="rounded=0;whiteSpace=wrap;html=1;fillColor=#CCCCCC;fontSize=10;align=left;strokeWidth=1;strokeColor=#CCCCCC;" parent="1" vertex="1">
          <mxGeometry x="222.5" y="200" width="340" height="60" as="geometry"/>
        </mxCell>
        <mxCell id="aofU6fkUi0YRMS0AcK9Y-10" value="" style="shape=image;html=1;verticalAlign=top;verticalLabelPosition=bottom;labelBackgroundColor=#ffffff;imageAspect=0;aspect=fixed;image=https://cdn3.iconfinder.com/data/icons/wpzoom-developer-icon-set/500/60-128.png;strokeColor=#CCCCCC;strokeWidth=1;fillColor=#CCCCCC;fontSize=10;align=left;" parent="1" vertex="1">
          <mxGeometry x="550" y="56" width="29" height="29" as="geometry"/>
        </mxCell>
        <mxCell id="aofU6fkUi0YRMS0AcK9Y-13" value="" style="shape=image;html=1;verticalAlign=top;verticalLabelPosition=bottom;labelBackgroundColor=#ffffff;imageAspect=0;aspect=fixed;image=https://cdn2.iconfinder.com/data/icons/circle-icons-1/64/flower-128.png;strokeColor=#CCCCCC;strokeWidth=1;fillColor=#CCCCCC;fontSize=10;align=left;" parent="1" vertex="1">
          <mxGeometry x="328.5" y="311" width="128" height="128" as="geometry"/>
        </mxCell>
        <mxCell id="aofU6fkUi0YRMS0AcK9Y-17" value="" style="shape=partialRectangle;whiteSpace=wrap;html=1;bottom=0;right=0;fillColor=none;strokeColor=#000000;strokeWidth=2;fontSize=10;align=left;" parent="1" vertex="1">
          <mxGeometry x="238.75" y="270" width="120" height="60" as="geometry"/>
        </mxCell>
        <mxCell id="aofU6fkUi0YRMS0AcK9Y-18" value="" style="shape=partialRectangle;whiteSpace=wrap;html=1;bottom=0;right=0;fillColor=none;strokeColor=#000000;strokeWidth=2;fontSize=10;align=left;direction=west;" parent="1" vertex="1">
          <mxGeometry x="436.25" y="420" width="110" height="60" as="geometry"/>
        </mxCell>
        <mxCell id="aofU6fkUi0YRMS0AcK9Y-20" value="Upload Image" style="rounded=1;html=1;shadow=0;dashed=0;whiteSpace=wrap;fontSize=10;fillColor=#666666;align=center;strokeColor=#4D4D4D;fontColor=#ffffff;" parent="1" vertex="1">
          <mxGeometry x="440.75" y="510" width="105.5" height="16.88" as="geometry"/>
        </mxCell>
        <mxCell id="aofU6fkUi0YRMS0AcK9Y-21" value="" style="rounded=0;whiteSpace=wrap;html=1;" parent="1" vertex="1">
          <mxGeometry x="905" y="40" width="455" height="400" as="geometry"/>
        </mxCell>
        <mxCell id="aofU6fkUi0YRMS0AcK9Y-22" value="Search For Plant By Name" style="ellipse;whiteSpace=wrap;html=1;" parent="1" vertex="1">
          <mxGeometry x="965" y="130" width="120" height="80" as="geometry"/>
        </mxCell>
        <mxCell id="aofU6fkUi0YRMS0AcK9Y-23" value="Enthusiast" style="shape=umlActor;html=1;verticalLabelPosition=bottom;verticalAlign=top;align=center;" parent="1" vertex="1">
          <mxGeometry x="825" y="250" width="30" height="60" as="geometry"/>
        </mxCell>
        <mxCell id="aofU6fkUi0YRMS0AcK9Y-24" value="Search For Plant By Image" style="ellipse;whiteSpace=wrap;html=1;" parent="1" vertex="1">
          <mxGeometry x="965" y="320" width="120" height="80" as="geometry"/>
        </mxCell>
        <mxCell id="aofU6fkUi0YRMS0AcK9Y-25" value="" style="edgeStyle=none;html=1;endArrow=none;endFill=0;endSize=12;verticalAlign=bottom;exitX=1;exitY=0.3333333333333333;exitDx=0;exitDy=0;exitPerimeter=0;entryX=0;entryY=0.5;entryDx=0;entryDy=0;" parent="1" source="aofU6fkUi0YRMS0AcK9Y-23" target="aofU6fkUi0YRMS0AcK9Y-22" edge="1">
          <mxGeometry width="160" relative="1" as="geometry">
            <mxPoint x="795" y="180" as="sourcePoint"/>
            <mxPoint x="955" y="180" as="targetPoint"/>
          </mxGeometry>
        </mxCell>
        <mxCell id="aofU6fkUi0YRMS0AcK9Y-26" value="" style="edgeStyle=none;html=1;endArrow=none;endFill=0;endSize=12;verticalAlign=bottom;exitX=1;exitY=0.3333333333333333;exitDx=0;exitDy=0;exitPerimeter=0;entryX=0;entryY=0.5;entryDx=0;entryDy=0;" parent="1" source="aofU6fkUi0YRMS0AcK9Y-23" target="aofU6fkUi0YRMS0AcK9Y-24" edge="1">
          <mxGeometry width="160" relative="1" as="geometry">
            <mxPoint x="825" y="400" as="sourcePoint"/>
            <mxPoint x="985" y="400" as="targetPoint"/>
          </mxGeometry>
        </mxCell>
        <mxCell id="aofU6fkUi0YRMS0AcK9Y-27" value="Display Plant" style="ellipse;whiteSpace=wrap;html=1;" parent="1" vertex="1">
          <mxGeometry x="1215" y="220" width="120" height="80" as="geometry"/>
        </mxCell>
        <mxCell id="aofU6fkUi0YRMS0AcK9Y-28" value="&amp;lt;&amp;lt;include&amp;gt;&amp;gt;" style="edgeStyle=none;html=1;endArrow=open;verticalAlign=bottom;dashed=1;labelBackgroundColor=none;exitX=1;exitY=0.5;exitDx=0;exitDy=0;entryX=0;entryY=0.5;entryDx=0;entryDy=0;" parent="1" source="aofU6fkUi0YRMS0AcK9Y-24" target="aofU6fkUi0YRMS0AcK9Y-27" edge="1">
          <mxGeometry width="160" relative="1" as="geometry">
            <mxPoint x="1005" y="250" as="sourcePoint"/>
            <mxPoint x="1165" y="250" as="targetPoint"/>
          </mxGeometry>
        </mxCell>
        <mxCell id="aofU6fkUi0YRMS0AcK9Y-29" value="&amp;lt;&amp;lt;include&amp;gt;&amp;gt;" style="edgeStyle=none;html=1;endArrow=open;verticalAlign=bottom;dashed=1;labelBackgroundColor=none;exitX=1;exitY=0.5;exitDx=0;exitDy=0;entryX=0;entryY=0.5;entryDx=0;entryDy=0;" parent="1" source="aofU6fkUi0YRMS0AcK9Y-22" target="aofU6fkUi0YRMS0AcK9Y-27" edge="1">
          <mxGeometry width="160" relative="1" as="geometry">
            <mxPoint x="1015" y="260" as="sourcePoint"/>
            <mxPoint x="1175" y="260" as="targetPoint"/>
          </mxGeometry>
        </mxCell>
        <mxCell id="aofU6fkUi0YRMS0AcK9Y-30" value="Plant It Earth" style="text;html=1;align=center;verticalAlign=middle;resizable=0;points=[];autosize=1;" parent="1" vertex="1">
          <mxGeometry x="1092.5" y="65" width="80" height="20" as="geometry"/>
        </mxCell>
        <mxCell id="aofU6fkUi0YRMS0AcK9Y-31" value="" style="rounded=0;whiteSpace=wrap;html=1;strokeColor=#CCCCCC;strokeWidth=2;fillColor=#CCCCCC;fontSize=10;align=left;" parent="1" vertex="1">
          <mxGeometry x="118.75" y="640" width="1440" height="2220" as="geometry"/>
        </mxCell>
        <mxCell id="aofU6fkUi0YRMS0AcK9Y-32" value="" style="rounded=0;whiteSpace=wrap;html=1;strokeColor=#808080;strokeWidth=2;fillColor=#808080;fontSize=10;align=left;" parent="1" vertex="1">
          <mxGeometry x="119" y="640" width="1440" height="130" as="geometry"/>
        </mxCell>
        <mxCell id="aofU6fkUi0YRMS0AcK9Y-36" value="&lt;font style=&quot;font-size: 22px&quot; face=&quot;Verdana&quot;&gt;Find Plants&lt;/font&gt;" style="shape=partialRectangle;whiteSpace=wrap;html=1;right=0;top=0;bottom=0;fillColor=none;routingCenterX=-0.5;strokeColor=#000000;strokeWidth=3;fontSize=10;align=center;" parent="1" vertex="1">
          <mxGeometry x="1359" y="640" width="200" height="130" as="geometry"/>
        </mxCell>
        <mxCell id="aofU6fkUi0YRMS0AcK9Y-37" value="&lt;font style=&quot;font-size: 22px&quot; face=&quot;Verdana&quot;&gt;Browse Plants&lt;/font&gt;" style="shape=partialRectangle;whiteSpace=wrap;html=1;top=0;bottom=0;fillColor=none;strokeColor=#000000;strokeWidth=3;fontSize=10;align=center;" parent="1" vertex="1">
          <mxGeometry x="1159" y="640" width="200" height="130" as="geometry"/>
        </mxCell>
        <mxCell id="aofU6fkUi0YRMS0AcK9Y-39" value="&lt;font style=&quot;font-size: 22px&quot; face=&quot;Verdana&quot;&gt;Gardening Tips&lt;/font&gt;" style="shape=partialRectangle;whiteSpace=wrap;html=1;right=0;top=0;bottom=0;fillColor=none;routingCenterX=-0.5;strokeColor=#000000;strokeWidth=3;fontSize=10;align=center;" parent="1" vertex="1">
          <mxGeometry x="960" y="640" width="200" height="130" as="geometry"/>
        </mxCell>
        <mxCell id="aofU6fkUi0YRMS0AcK9Y-42" value="Plant It Earth" style="text;html=1;align=center;verticalAlign=middle;resizable=0;points=[];autosize=1;fontSize=40;" parent="1" vertex="1">
          <mxGeometry x="206.5" y="680" width="250" height="50" as="geometry"/>
        </mxCell>
        <mxCell id="aofU6fkUi0YRMS0AcK9Y-45" value="IMAGE OF PLANT MAYBE" style="rounded=0;whiteSpace=wrap;html=1;strokeWidth=3;fontSize=40;align=center;" parent="1" vertex="1">
          <mxGeometry x="120" y="773" width="1440" height="567" as="geometry"/>
        </mxCell>
        <mxCell id="aofU6fkUi0YRMS0AcK9Y-47" value="" style="endArrow=none;html=1;fontSize=40;fontColor=#FFFFFF;exitX=0;exitY=0;exitDx=0;exitDy=0;entryX=1;entryY=1;entryDx=0;entryDy=0;" parent="1" source="aofU6fkUi0YRMS0AcK9Y-45" target="aofU6fkUi0YRMS0AcK9Y-45" edge="1">
          <mxGeometry width="50" height="50" relative="1" as="geometry">
            <mxPoint x="490" y="980" as="sourcePoint"/>
            <mxPoint x="540" y="930" as="targetPoint"/>
          </mxGeometry>
        </mxCell>
        <mxCell id="aofU6fkUi0YRMS0AcK9Y-48" value="" style="endArrow=none;html=1;fontSize=40;fontColor=#FFFFFF;entryX=1;entryY=0;entryDx=0;entryDy=0;exitX=0;exitY=1;exitDx=0;exitDy=0;" parent="1" source="aofU6fkUi0YRMS0AcK9Y-45" target="aofU6fkUi0YRMS0AcK9Y-45" edge="1">
          <mxGeometry width="50" height="50" relative="1" as="geometry">
            <mxPoint x="539.5" y="1090" as="sourcePoint"/>
            <mxPoint x="589.5" y="1040" as="targetPoint"/>
          </mxGeometry>
        </mxCell>
        <mxCell id="aofU6fkUi0YRMS0AcK9Y-50" value="&lt;span style=&quot;font-family: &amp;quot;open sans&amp;quot;, arial, sans-serif; text-align: justify; white-space: normal; font-size: 25px; background-color: rgb(204, 204, 204);&quot;&gt;Lorem ipsum dolor sit amet, consectetur adipiscing elit. Ut varius, turpis a congue vulputate, justo erat rhoncus tellus, quis dignissim enim urna quis ex. Nam accumsan ante dui, sed mattis orci placerat nec.&lt;/span&gt;" style="rounded=0;whiteSpace=wrap;html=1;fillColor=#CCCCCC;fontSize=25;align=left;strokeWidth=1;strokeColor=#CCCCCC;" parent="1" vertex="1">
          <mxGeometry x="180" y="1396" width="828.75" height="150.25" as="geometry"/>
        </mxCell>
        <mxCell id="aofU6fkUi0YRMS0AcK9Y-51" value="" style="shape=image;html=1;verticalAlign=top;verticalLabelPosition=bottom;labelBackgroundColor=#ffffff;imageAspect=0;aspect=fixed;image=https://cdn2.iconfinder.com/data/icons/circle-icons-1/64/flower-128.png;strokeColor=#000000;strokeWidth=3;fillColor=#000000;fontSize=25;fontColor=#FFFFFF;align=center;" parent="1" vertex="1">
          <mxGeometry x="1240" y="1390.6299999999999" width="161" height="161" as="geometry"/>
        </mxCell>
        <mxCell id="aofU6fkUi0YRMS0AcK9Y-52" value="&lt;span style=&quot;font-family: &amp;quot;open sans&amp;quot;, arial, sans-serif; text-align: justify; white-space: normal; font-size: 25px; background-color: rgb(204, 204, 204);&quot;&gt;Lorem ipsum dolor sit amet, consectetur adipiscing elit. Ut varius, turpis a congue vulputate, justo erat rhoncus tellus, quis dignissim enim urna quis ex. Nam accumsan ante dui, sed mattis orci placerat nec.&lt;/span&gt;" style="rounded=0;whiteSpace=wrap;html=1;fillColor=#CCCCCC;fontSize=25;align=left;strokeWidth=1;strokeColor=#CCCCCC;" parent="1" vertex="1">
          <mxGeometry x="673.25" y="1610" width="828.75" height="150.25" as="geometry"/>
        </mxCell>
        <mxCell id="aofU6fkUi0YRMS0AcK9Y-53" value="" style="shape=image;html=1;verticalAlign=top;verticalLabelPosition=bottom;labelBackgroundColor=#ffffff;imageAspect=0;aspect=fixed;image=https://cdn2.iconfinder.com/data/icons/circle-icons-1/64/flower-128.png;strokeColor=#000000;strokeWidth=3;fillColor=#000000;fontSize=25;fontColor=#FFFFFF;align=center;" parent="1" vertex="1">
          <mxGeometry x="295.5" y="1604.63" width="161" height="161" as="geometry"/>
        </mxCell>
        <mxCell id="aofU6fkUi0YRMS0AcK9Y-56" value="&lt;span style=&quot;font-family: &amp;quot;open sans&amp;quot;, arial, sans-serif; text-align: justify; white-space: normal; font-size: 25px; background-color: rgb(204, 204, 204);&quot;&gt;Lorem ipsum dolor sit amet, consectetur adipiscing elit. Ut varius, turpis a congue vulputate, justo erat rhoncus tellus, quis dignissim enim urna quis ex. Nam accumsan ante dui, sed mattis orci placerat nec.&lt;/span&gt;" style="rounded=0;whiteSpace=wrap;html=1;fillColor=#CCCCCC;fontSize=25;align=left;strokeWidth=1;strokeColor=#CCCCCC;" parent="1" vertex="1">
          <mxGeometry x="180" y="1895.37" width="828.75" height="150.25" as="geometry"/>
        </mxCell>
        <mxCell id="aofU6fkUi0YRMS0AcK9Y-57" value="" style="shape=image;html=1;verticalAlign=top;verticalLabelPosition=bottom;labelBackgroundColor=#ffffff;imageAspect=0;aspect=fixed;image=https://cdn2.iconfinder.com/data/icons/circle-icons-1/64/flower-128.png;strokeColor=#000000;strokeWidth=3;fillColor=#000000;fontSize=25;fontColor=#FFFFFF;align=center;" parent="1" vertex="1">
          <mxGeometry x="1240" y="1890" width="161" height="161" as="geometry"/>
        </mxCell>
        <mxCell id="aofU6fkUi0YRMS0AcK9Y-58" value="" style="verticalLabelPosition=bottom;verticalAlign=top;html=1;shape=mxgraph.basic.rect;fillColor2=none;strokeWidth=1;size=20;indent=5;fontSize=10;align=left;strokeColor=#CCCCCC;" parent="1" vertex="1">
          <mxGeometry x="218.75" y="2170" width="1240" height="480" as="geometry"/>
        </mxCell>
        <mxCell id="aofU6fkUi0YRMS0AcK9Y-59" value="" style="shape=image;html=1;verticalAlign=top;verticalLabelPosition=bottom;labelBackgroundColor=#ffffff;imageAspect=0;aspect=fixed;image=https://cdn2.iconfinder.com/data/icons/circle-icons-1/64/flower-128.png;strokeColor=#CCCCCC;strokeWidth=1;fillColor=#CCCCCC;fontSize=10;align=left;" parent="1" vertex="1">
          <mxGeometry x="697.37" y="2268.62" width="282.75" height="282.75" as="geometry"/>
        </mxCell>
        <mxCell id="aofU6fkUi0YRMS0AcK9Y-60" value="" style="shape=partialRectangle;whiteSpace=wrap;html=1;bottom=0;right=0;fillColor=none;strokeColor=#000000;strokeWidth=2;fontSize=10;align=left;" parent="1" vertex="1">
          <mxGeometry x="218.75" y="2170" width="581.25" height="270" as="geometry"/>
        </mxCell>
        <mxCell id="aofU6fkUi0YRMS0AcK9Y-61" value="" style="shape=partialRectangle;whiteSpace=wrap;html=1;bottom=0;right=0;fillColor=none;strokeColor=#000000;strokeWidth=2;fontSize=10;align=left;direction=west;" parent="1" vertex="1">
          <mxGeometry x="840" y="2450" width="618.75" height="200" as="geometry"/>
        </mxCell>
        <mxCell id="aofU6fkUi0YRMS0AcK9Y-62" value="&lt;font style=&quot;font-size: 30px&quot;&gt;Upload Image&lt;/font&gt;" style="rounded=1;html=1;shadow=0;dashed=0;whiteSpace=wrap;fontSize=10;fillColor=#666666;align=center;strokeColor=#4D4D4D;fontColor=#ffffff;" parent="1" vertex="1">
          <mxGeometry x="1220" y="2680" width="238.75" height="70" as="geometry"/>
        </mxCell>
      </root>
    </mxGraphModel>
  </diagram>
</mxfile>
